<?xml version="1.0" encoding="UTF-8" standalone="no"?>
<!-- Created with Inkscape (http://www.inkscape.org/) -->

<svg
   version="1.1"
   id="svg2"
   width="290.89334"
   height="91.786667"
   viewBox="0 0 290.89334 91.786667"
   sodipodi:docname="Merillat_Logo_2c_Red_Grey 2019.eps"
   xmlns:inkscape="http://www.inkscape.org/namespaces/inkscape"
   xmlns:sodipodi="http://sodipodi.sourceforge.net/DTD/sodipodi-0.dtd"
   xmlns="http://www.w3.org/2000/svg"
   xmlns:svg="http://www.w3.org/2000/svg">
  <defs
     id="defs6">
    <clipPath
       clipPathUnits="userSpaceOnUse"
       id="clipPath22">
      <path
         d="m 1622.24,364.313 h 36.04 v 36.734 h -36.04 z"
         id="path20" />
    </clipPath>
  </defs>
  <sodipodi:namedview
     id="namedview4"
     pagecolor="#ffffff"
     bordercolor="#000000"
     borderopacity="0.25"
     inkscape:showpageshadow="2"
     inkscape:pageopacity="0.0"
     inkscape:pagecheckerboard="0"
     inkscape:deskcolor="#d1d1d1" />
  <g
     id="g8"
     inkscape:groupmode="layer"
     inkscape:label="ink_ext_XXXXXX"
     transform="matrix(1.3333333,0,0,-1.3333333,0,91.786667)">
    <g
       id="g10"
       transform="scale(0.1)">
      <path
         d="m 0,1.4375 v 0 H 9.57031 V 74.6797 L 43.0625,26.3203 h 0.4844 l 33.0273,48.836 V 1.4375 h 10.0391 v 90.957 H 76.5742 L 43.0625,42.6094 10.0508,92.3945 H 0 Z m 153.133,0 v 0 h 66.515 v 9.1016 h -55.984 v 32.0703 h 49.285 v 9.1015 h -49.285 v 31.1016 h 55.035 v 9.582 h -65.566 z m 138.305,44.5234 v 0 36.8516 h 27.757 c 7.653,0 13.391,-1.4336 17.223,-4.7852 4.301,-3.3476 6.223,-7.6445 6.223,-13.3945 0,-2.875 -0.469,-5.7539 -1.922,-8.1367 -0.949,-1.9258 -2.867,-3.8398 -4.785,-5.7539 -1.903,-1.4336 -4.301,-2.8711 -7.168,-3.3477 -2.871,-0.957 -6.219,-1.4336 -9.571,-1.4336 z M 280.906,1.4375 v 0 h 10.532 v 35.418 h 25.839 l 26.325,-35.418 h 12.441 L 328.281,38.293 c 3.352,0.9648 6.699,1.914 9.571,3.3476 3.351,1.4492 5.75,3.3516 8.136,5.2657 2.399,2.4023 3.832,4.8046 5.27,7.664 0.953,3.3594 1.43,6.711 1.43,10.5391 0,3.8164 -0.477,7.1679 -1.43,10.0469 -1.438,2.871 -3.352,5.7421 -5.27,8.1445 -2.867,2.8633 -6.699,4.789 -11.008,6.7031 -4.3,1.4336 -9.085,2.3906 -14.832,2.3906 h -39.242 z m 135.434,0 v 0 h 10.523 v 90.957 H 416.34 Z m 77.992,0 v 0 h 61.266 v 9.5703 h -51.211 v 81.3867 h -10.055 z m 121.086,0 v 0 h 61.254 v 9.5703 h -51.215 v 81.3867 h -10.039 z m 138.297,33.0352 v 0 L 774.77,80.8984 795.344,34.4727 Z M 728.836,1.4375 v 0 h 10.519 l 10.536,23.9336 h 49.285 L 810.18,1.4375 h 11.004 l -41.629,91.4336 h -9.575 z m 175.137,0 v 0 h 10.05 v 81.375 h 30.625 v 9.582 h -71.3 v -9.582 h 30.625 z M 1134.64,0.949219 v 0 c 3.35,0.964841 6.22,1.921871 9.09,3.351561 3.35,1.4336 5.74,2.87891 8.62,4.78516 2.38,1.92186 4.78,4.31246 7.16,6.71486 l -6.7,6.7031 c -4.29,-4.3203 -8.6,-7.668 -13.38,-10.0703 -4.32,-1.8945 -9.57,-3.34766 -15.8,-3.34766 -5.26,0 -10.04,0.96486 -14.36,2.87886 -4.31,1.9219 -7.66,4.7852 -11.01,8.1329 -3.35,3.3632 -5.73,7.1875 -7.16,11.9726 -1.92,4.3086 -2.89,9.5703 -2.89,14.836 0,5.2734 0.97,10.0585 2.89,14.8515 1.43,4.3086 3.81,8.625 7.16,11.9727 3.35,3.3515 6.7,5.7343 11.01,7.6484 4.32,1.9219 9.1,2.8711 14.36,2.8711 6.23,0 11.48,-0.9492 15.8,-3.3516 4.3,-2.3828 8.6,-5.2617 12.44,-9.0898 l 7.17,7.6562 c -2.39,1.9141 -4.78,3.836 -7.17,5.75 -2.4,1.918 -4.79,3.3516 -7.66,4.7891 -2.87,0.9453 -6.22,1.9141 -9.57,2.8672 -3.35,0.4805 -6.7,0.957 -11.01,0.957 -6.69,0 -12.92,-1.4336 -18.67,-3.8242 -5.26,-2.4062 -10.51,-5.7539 -14.35,-10.0625 -4.3,-4.3047 -7.18,-9.0898 -9.57,-14.832 -2.4,-5.7539 -3.35,-11.9649 -3.35,-18.2031 v -0.4688 c 0,-6.2305 0.95,-12.4531 3.35,-18.1953 2.39,-5.7383 5.27,-10.5352 9.57,-14.8438 3.84,-4.31246 8.62,-7.66402 14.35,-10.04684 5.75,-2.402341 11.5,-3.34765375 18.2,-3.34765375 4.29,0 8.13,0 11.48,0.94531275 M 1235.61,34.4727 v 0 l 21.05,46.4257 20.59,-46.4257 z M 1210.25,1.4375 v 0 h 10.53 l 11.01,23.9336 h 49.28 L 1291.6,1.4375 h 11.01 l -41.16,91.4336 h -9.57 z m 161.74,9.1016 v 0 32.0703 h 28.25 c 8.12,0 13.87,-1.4336 18.17,-4.3164 3.84,-2.3828 6.22,-6.2227 6.22,-11.4844 0,-5.2734 -1.9,-9.1016 -6.22,-11.9727 -3.82,-2.8711 -9.08,-4.2968 -16.27,-4.2968 z m 0,41.1718 v 0 31.1016 h 27.28 c 6.71,0 11.49,-0.9453 14.84,-3.8281 3.83,-2.8711 5.27,-6.2188 5.27,-10.5235 v -0.4804 c 0,-5.2657 -1.92,-9.5703 -5.76,-11.9727 -3.81,-2.8633 -8.6,-4.2969 -14.83,-4.2969 z M 1361.48,1.4375 v 0 h 40.19 c 5.26,0 9.57,0.47656 13.88,1.43359 3.83,1.42969 7.18,2.86329 10.05,4.78516 2.87,2.39455 5.26,4.77735 6.7,8.14455 1.43,2.875 2.38,6.7031 2.38,10.5195 0,3.3516 -0.48,5.75 -1.43,8.1524 -0.95,2.3828 -2.39,4.7851 -4.3,6.2226 -1.44,1.9141 -3.83,3.3516 -6.22,4.7852 -2.4,0.957 -4.79,2.3906 -7.18,2.8633 1.42,0.9648 3.35,1.9218 4.78,2.8789 1.92,1.4336 3.35,2.8711 4.79,4.3046 1.42,1.9141 2.39,3.8282 3.35,6.2305 0.96,1.9063 1.42,4.7891 1.42,7.6602 v 0.4765 c 0,5.2618 -2.38,10.0469 -6.21,14.3555 -2.39,2.4023 -5.74,4.3164 -9.57,5.7539 -4.3,1.4336 -8.62,2.3906 -13.87,2.3906 h -38.76 z m 135.42,0 v 0 h 10.52 v 90.957 h -10.52 z m 77.53,0 v 0 h 10.04 v 74.1992 l 58.86,-74.1992 h 8.14 v 90.957 h -10.05 V 19.1523 L 1584,92.3945 h -9.57 z m 143.56,0 v 0 h 66.04 v 9.1016 h -55.99 v 32.0703 h 49.76 v 9.1015 h -49.76 v 31.1016 h 55.52 v 9.582 h -65.57 z m 151.69,0 v 0 h 10.06 v 81.375 h 30.62 v 9.582 h -71.31 v -9.582 h 30.63 z m 111.03,44.5234 v 0 36.8516 h 28.23 c 7.18,0 12.92,-1.4336 17.23,-4.7852 3.83,-3.3476 6.22,-7.6445 6.22,-13.3945 0,-2.875 -0.96,-5.7539 -1.91,-8.1367 -1.44,-1.9258 -2.87,-3.8398 -4.78,-5.7539 -2.41,-1.4336 -4.79,-2.8711 -7.66,-3.3477 -2.88,-0.957 -5.75,-1.4336 -9.1,-1.4336 z M 1970.67,1.4375 v 0 h 10.04 v 35.418 h 25.84 l 26.8,-35.418 h 12.43 l -28.22,36.8555 c 3.83,0.9648 7.18,1.914 10.05,3.3476 2.87,1.4492 5.74,3.3516 8.13,5.2657 1.93,2.4023 3.83,4.8046 4.79,7.664 1.43,3.3594 1.92,6.711 1.92,10.5391 0,3.8164 -0.49,7.1679 -1.92,10.0469 -0.96,2.871 -2.86,5.7421 -5.26,8.1445 -2.88,2.8633 -6.23,4.789 -10.53,6.7031 -4.31,1.4336 -9.58,2.3906 -15.31,2.3906 h -38.76 z m 162.69,0 v 0 h 10.54 v 35.8984 l 37.81,55.0586 h -11.97 l -31.12,-45.4882 -30.13,45.4882 h -12.45 l 37.32,-55.0586 V 1.4375"
         style="fill:#5b5e66;fill-opacity:1;fill-rule:nonzero;stroke:none"
         id="path12" />
      <path
         d="m 1119.81,688.426 -29.19,-57.93 -29.2,57.93 H 777.164 L 603.449,364.316 h 271.344 l 27.742,45.477 29.195,-45.477 h 318.23 l 29.2,45.477 27.28,-45.477 h 271.34 l -173.73,324.11 h -284.24"
         style="fill:#e22224;fill-opacity:1;fill-rule:nonzero;stroke:none"
         id="path14" />
      <g
         id="g16">
        <g
           id="g18"
           clip-path="url(#clipPath22)">
          <path
             d="m 1636.67,380.867 h 3.16 l 5.25,-8.695 h 3.78 l -5.69,8.937 c 3.03,0.348 5.29,1.868 5.29,5.547 0,4.125 -2.5,5.84 -7.41,5.84 h -7.71 v -20.324 h 3.33 z m 0,2.848 v 5.941 h 4.03 c 2.02,0 4.43,-0.293 4.43,-2.754 0,-2.945 -2.21,-3.187 -4.72,-3.187 z m 21.61,-1.039 c 0,11.051 -8.35,18.371 -17.97,18.371 -9.72,0 -18.07,-7.32 -18.07,-18.371 0,-10.457 7.52,-18.363 18.07,-18.363 9.62,0 17.97,7.316 17.97,18.363 m -3.91,0 c 0,-8.985 -6.2,-15.172 -14.06,-15.172 -8.74,0 -14.15,6.824 -14.15,15.172 0,8.941 6.2,15.183 14.15,15.183 7.86,0 14.06,-6.242 14.06,-15.183"
             style="fill:#e22224;fill-opacity:1;fill-rule:nonzero;stroke:none"
             id="path24" />
        </g>
      </g>
    </g>
  </g>
</svg>
