<svg id="Layer_1" data-name="Layer 1" xmlns="http://www.w3.org/2000/svg" viewBox="0 0 336.02 154.53"><defs><style>.cls-1{fill:#d3b66d}</style></defs><path class="cls-1" d="M200.11 427.67a33.07 33.07 0 0 0 3.06-14.13v-12h-3.1v12a31.67 31.67 0 0 1-1.84 10.46l-.57 1.65-37.74-45.1c-4-4.7-6.12-9.47-6.12-13.79 0-10.09 8.35-15.53 16.21-15.53h2.05v-2.69h-2.12c-11.05 0-19.37 7.85-19.37 18.21 0 5 2.38 10.37 6.89 15.68l1.89 2.14-1.06.6c-13.39 7.51-20.76 17.92-20.76 29.31 0 17 14.81 31.37 32.34 31.37 11.44 0 21.49-5 27.58-13.7l.74-1.06 11 13.12h4.13l-13.44-16Zm-4.43 1.62c-5.3 8.66-14.71 13.63-25.81 13.63-16 0-29-12.68-29-28.27C140.9 404 148 394 160.49 387.3l.71-.38 34.85 41.77Z" transform="translate(-137.53 -318.27)"/><path class="cls-1" d="M208.06 320.36c-3.05-1.77-6.91-2.09-12.29-2.09H184v57.13h2.81v-24.1h8.84c13.58 0 20.33-6.75 20.33-16.72a16.26 16.26 0 0 0-7.92-14.22Zm-1.36 26.2c-3.38 2-6.83 2-10.93 2h-8.92v-27.48h8.27c5.55 0 9.57.25 12.54 2.34 3.37 2.32 5.38 6.5 5.38 11.32-.04 5.15-2.25 9.41-6.34 11.82Z" transform="translate(-137.53 -318.27)"/><path class="cls-1" d="M114.41 54.32H91.99V0h-2.81v57.13h25.23v-2.81z"/><path class="cls-1" d="M270.5 355.47h28.77l8.11 19.93h3l-23.54-57.13h-3.94l-23.48 57.13h3Zm14.39-34.87 13.17 32.22h-26.43Z" transform="translate(-137.53 -318.27)"/><path class="cls-1" d="M180.95 0h2.97v57.13h-2.97zM201.12 3.86l34.95 53.27h3.78V0h-2.81v53.27L201.84 0h-3.53v57.13h2.81V3.86zM116.72 95.68H92.05V71.74h24.67v-2.89H89.24v57.12h2.81V98.41h24.67v-2.73z"/><path class="cls-1" d="m282.37 387.12-23.46 57.13h3l8.09-19.93h28.76l8.12 19.93h3l-23.54-57.13Zm-11.25 34.55 13.26-32.22 13.18 32.22Z" transform="translate(-137.53 -318.27)"/><path class="cls-1" d="M223.35 125.97V68.85h-2.81v53.27l-35.19-53.27h-3.54v57.12h2.81V72.7l34.96 53.27h3.77z"/><path class="cls-1" d="M427 430.11h-3.45c-5.46 8.75-12.62 12.85-22.5 12.85a26.35 26.35 0 0 1-18.48-8.11 28 28 0 0 1 2.43-40.26 25.11 25.11 0 0 1 16.47-5.94c9.4 0 16.56 4.33 22.5 13.25h3.3c-5.96-10.52-14.8-15.9-26.13-15.9a27.66 27.66 0 0 0-20.14 8.27 29 29 0 0 0-8.92 21.05c0 17.12 12.13 30.05 30 30.05 10.79 0 18.27-4.58 24.92-15.26Z" transform="translate(-137.53 -318.27)"/><path class="cls-1" d="m332.88 68.85-16.95 34.38-16.87-34.38h-3.22l18.65 37.52v19.6h2.97v-19.6l18.56-37.52h-3.14z"/><path class="cls-1" d="M192.74 469.74a.3.3 0 0 0-.41 0 3.92 3.92 0 0 1-2.49.92 3.78 3.78 0 0 1 0-7.56 3.82 3.82 0 0 1 2.51 1 .26.26 0 0 0 .41 0l1-1a.31.31 0 0 0 0-.46 5.5 5.5 0 0 0-3.94-1.51 5.87 5.87 0 1 0 0 11.73 5.62 5.62 0 0 0 4-1.58.31.31 0 0 0 0-.44ZM210.66 461.23h-1.55a.31.31 0 0 0-.31.31v6.68a2.37 2.37 0 1 1-4.74 0v-6.67a.31.31 0 0 0-.31-.31h-1.55a.33.33 0 0 0-.31.31v6.78a4.54 4.54 0 0 0 9.08 0v-6.78a.33.33 0 0 0-.31-.32ZM222.65 465.89c-1.32-.54-1.92-1.06-1.92-1.82a1.29 1.29 0 0 1 1.43-1.14 5.34 5.34 0 0 1 2.26.89.43.43 0 0 0 .57-.2l.62-.92a.4.4 0 0 0-.1-.54 5.72 5.72 0 0 0-3.25-1.09c-2.59 0-3.67 1.68-3.67 3.13 0 1.92 1.53 2.9 3.06 3.52 1.37.55 2.07 1.12 2.07 1.95a1.35 1.35 0 0 1-1.48 1.25 5.51 5.51 0 0 1-2.46-1 .37.37 0 0 0-.55.11l-.59 1c-.15.26-.07.34.08.49a5.25 5.25 0 0 0 3.59 1.27 3.44 3.44 0 0 0 3.74-3.23c0-2.09-1.82-3.03-3.4-3.67ZM240.49 461.23h-7.12a.31.31 0 0 0-.31.31v1.34a.31.31 0 0 0 .31.31h2.49v9.14a.32.32 0 0 0 .31.3h1.52a.31.31 0 0 0 .3-.3v-9.14h2.5a.31.31 0 0 0 .31-.31v-1.34a.31.31 0 0 0-.31-.31ZM253.52 461.07a5.87 5.87 0 1 0 5.87 5.88 5.84 5.84 0 0 0-5.87-5.88Zm0 9.61a3.75 3.75 0 0 1 0-7.49 3.75 3.75 0 1 1 0 7.49ZM275.86 461.07h-.27a.27.27 0 0 0-.27.16l-3.59 7.69-3.59-7.69a.3.3 0 0 0-.28-.16h-.26a.27.27 0 0 0-.29.24l-1.94 10.95a.3.3 0 0 0 .31.37h1.47a.31.31 0 0 0 .29-.24l1-6.17 2.89 6.4a.29.29 0 0 0 .28.18h.29a.28.28 0 0 0 .28-.18l2.85-6.4 1 6.17a.34.34 0 0 0 .31.24h1.48a.28.28 0 0 0 .29-.37l-1.92-10.95a.27.27 0 0 0-.33-.24ZM302.35 469.74a.3.3 0 0 0-.41 0 3.92 3.92 0 0 1-2.49.92 3.78 3.78 0 0 1 0-7.56 3.82 3.82 0 0 1 2.51 1 .26.26 0 0 0 .41 0l1-1a.31.31 0 0 0 0-.46 5.5 5.5 0 0 0-3.94-1.51 5.87 5.87 0 1 0 0 11.73 5.62 5.62 0 0 0 4-1.58.31.31 0 0 0 0-.44ZM315.64 461.25a.27.27 0 0 0-.28-.18h-.16a.29.29 0 0 0-.28.18l-5.06 11a.28.28 0 0 0 .27.42h1.42a.48.48 0 0 0 .47-.32l.8-1.76h4.87l.8 1.76a.47.47 0 0 0 .47.32h1.42a.28.28 0 0 0 .28-.42Zm-2 7.49 1.6-3.58 1.62 3.58ZM333.69 466.84a3.1 3.1 0 0 0 1.79-2.59 3.19 3.19 0 0 0-3.43-3h-3.73a.31.31 0 0 0-.31.31v10.79a.3.3 0 0 0 .31.3h3.94a3.28 3.28 0 0 0 3.55-3.14 2.9 2.9 0 0 0-2.12-2.67Zm-3.58-3.67h1.74a1.33 1.33 0 0 1 1.4 1.39 1.39 1.39 0 0 1-1.4 1.46h-1.74Zm2 7.54h-2v-2.9h1.77a1.59 1.59 0 0 1 1.67 1.42 1.46 1.46 0 0 1-1.47 1.48Z" transform="translate(-137.53 -318.27)"/><rect class="cls-1" x="206.4" y="142.96" width="2.13" height="11.4" rx=".31"/><path class="cls-1" d="M363.88 461.23h-1.5a.31.31 0 0 0-.31.31v6.73l-6.78-7.2h-.41a.31.31 0 0 0-.31.29v11a.32.32 0 0 0 .31.3h1.48a.3.3 0 0 0 .31-.3v-7l6.81 7.48h.39a.31.31 0 0 0 .31-.29v-11a.33.33 0 0 0-.3-.32ZM379.31 461.23h-6.63a.31.31 0 0 0-.31.31v10.79a.3.3 0 0 0 .31.3h6.63a.3.3 0 0 0 .31-.3V471a.31.31 0 0 0-.31-.31h-4.82v-2.85h4a.31.31 0 0 0 .31-.31v-1.35a.32.32 0 0 0-.31-.31h-4v-2.67h4.82a.31.31 0 0 0 .31-.31v-1.34a.31.31 0 0 0-.31-.32ZM394.3 461.23h-7.12a.31.31 0 0 0-.31.31v1.34a.31.31 0 0 0 .31.31h2.49v9.14a.32.32 0 0 0 .31.3h1.52a.31.31 0 0 0 .3-.3v-9.14h2.5a.31.31 0 0 0 .31-.31v-1.34a.31.31 0 0 0-.31-.31ZM411 464.74a3.52 3.52 0 0 0-3.55-3.51h-4.65a.31.31 0 0 0-.31.31v10.79a.3.3 0 0 0 .31.3h1.5a.32.32 0 0 0 .31-.3v-4.16h1.81l2.16 4.32a.29.29 0 0 0 .27.14h1.71a.3.3 0 0 0 .27-.47L408.6 468a3.61 3.61 0 0 0 2.4-3.26Zm-3.73 1.69h-2.65v-3.24h2.65a1.62 1.62 0 0 1 1.61 1.58 1.66 1.66 0 0 1-1.6 1.66ZM427 461.23h-1.68a.32.32 0 0 0-.26.15l-2.6 3.74-2.61-3.74a.32.32 0 0 0-.26-.15h-1.66a.3.3 0 0 0-.27.47l3.72 5.44v5.19a.3.3 0 0 0 .31.3h1.5a.32.32 0 0 0 .31-.3v-5.2l3.76-5.43a.3.3 0 0 0-.26-.47Z" transform="translate(-137.53 -318.27)"/></svg>